<svg xmlns="http://www.w3.org/2000/svg" width="40" height="40">
  <path d="M 0 4.904 L 0 0.015 L 19.963 0.015 C 27.71 0.013 34.758 4.496 38.041 11.514 C 41.323 18.531 40.247 26.815 35.28 32.76 L 27.943 32.76 C 33.652 29.202 36.31 22.29 34.458 15.823 C 32.605 9.356 26.69 4.9 19.963 4.904 Z M 19.963 35.053 C 13.242 35.048 7.337 30.594 5.486 24.134 C 3.635 17.674 6.285 10.768 11.983 7.205 L 4.639 7.205 C -0.296 13.12 -1.385 21.346 1.841 28.341 C 5.066 35.336 12.03 39.85 19.732 39.938 L 39.928 39.938 L 39.928 35.053 Z M 32.743 19.978 C 32.746 25.147 29.634 29.81 24.859 31.79 C 20.083 33.771 14.585 32.679 10.928 29.025 C 7.272 25.37 6.177 19.873 8.155 15.096 C 10.132 10.32 14.793 7.205 19.963 7.205 C 27.015 7.213 32.731 12.926 32.743 19.978 Z M 28.075 19.978 C 28.075 15.498 24.443 11.866 19.963 11.866 C 15.483 11.866 11.851 15.498 11.851 19.978 C 11.851 24.458 15.483 28.089 19.963 28.089 C 24.443 28.089 28.075 24.458 28.075 19.978 Z" fill="rgb(44, 46, 57)"></path>
</svg>